<svg width="74" height="70" viewBox="0 0 74 70" fill="none" xmlns="http://www.w3.org/2000/svg">
<path d="M37.0019 13.0359C33.408 13.0359 30.484 10.1119 30.484 6.51793C30.484 2.92394 33.408 0 37.0019 0C40.5959 0 43.5199 2.92394 43.5199 6.51793C43.5199 10.1119 40.5959 13.0359 37.0019 13.0359Z" fill="#4FDAE1"/>
<path d="M67.4731 65.8297C66.3679 65.8297 65.249 65.549 64.2251 64.9578C61.1126 63.1607 60.0423 59.1667 61.8394 56.0541C63.6363 52.9416 67.6304 51.8717 70.743 53.6683C73.8554 55.4653 74.9257 59.4595 73.1288 62.5721C71.9229 64.6606 69.7273 65.8297 67.4731 65.8297Z" fill="#16AAC8"/>
<path d="M42.2689 69.8564L41.002 56.7888L42.5848 56.2135C43.7973 55.7729 44.9542 55.175 46.0162 54.4453L39.7642 50.8358L46.2821 39.5464L52.5341 43.1559C52.635 41.8714 52.5744 40.5706 52.3499 39.3002L52.0568 37.642L58.5597 34.6823L58.5593 34.6835L64.007 32.2052L64.6664 34.69C66.5972 41.9644 65.593 49.5517 61.8388 56.0542C58.0846 62.5566 52.016 67.22 44.7507 69.1851L42.2689 69.8564Z" fill="#16AAC8"/>
<path d="M6.53163 65.8297C4.2773 65.8297 2.08191 64.6608 0.876096 62.572C0.00559045 61.0644 -0.225724 59.3079 0.224883 57.6262C0.675489 55.9446 1.75399 54.5391 3.26166 53.6684C6.37419 51.8715 10.3684 52.9417 12.1653 56.0543C13.9624 59.1668 12.8921 63.1608 9.77959 64.9579C8.75584 65.5489 7.63664 65.8297 6.53163 65.8297Z" fill="#4FDAE1"/>
<path d="M31.7348 69.8564L29.2531 69.1851C21.9878 67.22 15.9192 62.5566 12.165 56.0542C8.41079 49.5517 7.40659 41.9646 9.33735 34.69L9.99682 32.2052L21.9471 37.6417L21.6539 39.3002C21.4294 40.5706 21.3687 41.8714 21.4697 43.1561L27.7217 39.5464L34.2396 50.8358L27.9876 54.4453C29.0496 55.175 30.2065 55.7729 31.4189 56.2135L33.0021 56.789L31.7348 69.8564Z" fill="#4FDAE1"/>
<path d="M43.4545 34.7623H30.4186V27.5536C29.2979 28.099 28.2341 28.7931 27.2367 29.6307L25.947 30.7137L15.2637 23.0828L17.0859 21.2692C22.4205 15.9598 29.4933 13.0359 37.0017 13.0359C44.5101 13.0359 51.5829 15.9598 56.9175 21.2692L58.7397 23.0828L48.0564 30.7137L46.7667 29.6307C45.7737 28.7968 44.6551 28.0884 43.4546 27.5279V34.7623H43.4545Z" fill="#4FDAE1"/>
<path d="M43.4544 34.7623V27.5279C44.6548 28.0884 45.7734 28.7967 46.7665 29.6307L48.0562 30.7137L58.7395 23.0828L56.9172 21.2692C51.5827 15.9598 44.5098 13.0359 37.0015 13.0359V34.7623H43.4544Z" fill="#16AAC8"/>
<path d="M43.5193 6.51793C43.5193 2.92394 40.5953 0 37.0013 0V13.0359C40.5953 13.0359 43.5193 10.1119 43.5193 6.51793Z" fill="#16AAC8"/>
</svg>
